<?xml version="1.0" encoding="utf-8"?>
<!-- Generator: Adobe Illustrator 23.0.2, SVG Export Plug-In . SVG Version: 6.00 Build 0)  -->
<svg version="1.1"
	 id="Capa_1" text-rendering="geometricPrecision" shape-rendering="geometricPrecision" image-rendering="optimizeQuality"
	 xmlns="http://www.w3.org/2000/svg" xmlns:xlink="http://www.w3.org/1999/xlink" x="0px" y="0px" viewBox="0 0 90.8 100"
	 style="enable-background:new 0 0 90.8 100;" xml:space="preserve">
<style type="text/css">
	.st0{fill-rule:evenodd;clip-rule:evenodd;fill:#E6E6E6;}
	.st1{fill-rule:evenodd;clip-rule:evenodd;fill:#1A1617;}
	.st2{fill-rule:evenodd;clip-rule:evenodd;fill:#3D3D3D;}
	.st3{fill-rule:evenodd;clip-rule:evenodd;fill:#F6D5B8;}
	.st4{fill-rule:evenodd;clip-rule:evenodd;fill:#E6C6AA;}
	.st5{fill-rule:evenodd;clip-rule:evenodd;fill:#383032;}
	.st6{fill-rule:evenodd;clip-rule:evenodd;fill:#FFFFFF;}
	.st7{fill-rule:evenodd;clip-rule:evenodd;fill:#F23034;}
</style>
<g>
	<rect x="-301" y="0.1" class="st0" width="90.8" height="100"/>
	<path class="st1" d="M-270.6,58.6c-0.2,0.1-0.4,0.2-1.1,0.4c-3.5,1.2-6.9,2.6-10.3,4.3c-2.2,1.1-2,0.7-2.9,2.9
		c-2.4,5.6-14.4,28.3-16.1,33.9c15,0,89.2,0,89.2,0s-11-28.3-13.4-33.9c-0.9-2.2-0.7-1.8-2.9-2.9c-3.4-1.7-6.9-3.1-10.3-4.3
		c-0.5-0.2-0.7-0.2-0.9-0.3l0-0.1c-0.7-1.1-1.4-2.2-2.3-3.2c4.2,0.3,7.6-0.8,9.8-3.3c2.1-2.5,2.2-4.4,2.3-7.4
		c0.2-6-0.2-12.4-1.9-18.4c-1.6-5.9-4.3-11.3-8.7-15.5c-4.2-4-9-7.1-14.9-7.1c-4.1,0-7.7,0.8-10.2,4.8c-2.5-0.3-3.8,0.8-5.5,2.4
		c-4.3,4.2-7.1,9.6-8.7,15.5c-1.6,6-2.1,12.4-1.9,18.4c0.1,3.1,0.2,4.9,2.3,7.4c2.3,2.8,6,3.8,10.7,3.3h0.1
		C-269.2,56.4-270,57.5-270.6,58.6z"/>
	<path class="st2" d="M-268.4,55.4c0.9-1,2-1.9,3.2-2.7l0.6-2.9c-2.2-2.5-3.8-6-4.7-9.9c-1.7,0-3.4-1.9-4.1-4.7
		c-0.5-2.2-0.6-4,0-5.1c1-1.9,2.9-0.7,3.7,0.7c0.7-5.8,3.2-10.8,6.6-13.9c2.5,2.8,5.5,5.2,9.4,5.6c7.5,0.8,11.4,3.5,13.2,7.9
		c0.8-1.2,2.5-2,3.4-0.3c0.6,1.1,0.6,2.9,0,5.1c-0.6,2.6-2.2,4.5-3.8,4.6c-0.8,3.8-2.4,7.1-4.4,9.6l0,0.3l0.7,3.1
		c1,0.7,2.1,1.6,2.9,2.7c4.2,0.3,7.7-0.7,9.8-3.3c2.1-2.5,2.2-4.4,2.3-7.4c0.2-6-0.2-12.4-1.9-18.4c-1.6-5.9-4.3-11.3-8.7-15.5
		c-4.2-4-9-7.2-14.9-7.2c-4.1,0-7.7,0.8-10.2,4.8c-2.5-0.3-3.8,0.8-5.5,2.4c-4.3,4.2-7.1,9.6-8.7,15.5c-1.6,6-2.1,12.4-1.9,18.4
		c0.1,3.1,0.2,4.9,2.3,7.4C-276.8,54.9-273.1,55.9-268.4,55.4z"/>
	<path class="st3" d="M-240.5,30.4c0.8-1.2,2.5-2,3.4-0.3c0.6,1.1,0.6,2.9,0,5.1c-0.6,2.6-2.2,4.5-3.8,4.6c-0.8,3.8-2.4,7.1-4.4,9.6
		l0,0.3l0.6,2.9l-0.1,0c0.1,0.2,0.1,0.3,0.2,0.5l0,0.1c0.2,0.8,0.4,1.7,0.6,2.6c1.3,7.3-1.3,14.1-4.4,21.2c-1.7,1.8-4.3,3.2-6.6,3.1
		c-2.4,0.1-5-1.3-6.7-3.2c-2.9-6.6-5.3-13-4.6-19.7c0.2-1.4,0.5-2.8,0.9-4l0.1-0.6l0.6-2.9c-2.2-2.5-3.8-6-4.7-9.9
		c-1.7,0-3.4-1.9-4.1-4.7c-0.5-2.2-0.6-4,0-5.1c1-1.9,2.9-0.7,3.7,0.7c0.7-5.8,3.2-10.8,6.6-13.9c2.5,2.8,5.5,5.2,9.4,5.6
		C-246.3,23.4-242.3,26-240.5,30.4z"/>
	<path class="st4" d="M-269.4,39.3c-0.3-1.5-0.5-3.1-0.5-4.6c0-1,0-2,0.1-3c-0.1-0.1-0.2-0.2-0.3-0.3c-0.3-0.3-0.9-0.8-1.4-0.7
		c-0.4,0-0.6,0.3-0.8,0.6c-0.7,1.2-0.2,3.1,0.1,4.3c0.3,1,0.8,2.1,1.6,2.9C-270.2,38.8-269.8,39.1-269.4,39.3z M-240.8,39.3
		c0.3-1.5,0.5-3.1,0.5-4.6c0-1,0-2-0.1-3c0.1-0.1,0.2-0.2,0.3-0.3c0.3-0.3,0.9-0.8,1.4-0.7c0.4,0,0.6,0.3,0.8,0.6
		c0.6,1.2,0.2,3.1-0.1,4.3c-0.3,1-0.8,2.1-1.6,2.9C-240,38.8-240.4,39.1-240.8,39.3z"/>
	<path class="st4" d="M-244.7,52.7l-0.6-2.9l0-0.3c-2.6,3.2-6,5.1-9.8,5.1c-3.6,0-7-1.8-9.5-4.8l-0.2,0.8c1.1,1.4,2.3,2.6,3.7,3.5
		c1.8,1.2,3.9,2,6.2,2.4c2.4,0.4,4.9,0.5,7.6,0.3c0.7,0,0.6-0.2,0.8,0.5c2.2,8.7-1.6,23-15,19.8c1.7,1.8,4.3,3.2,6.6,3.1
		c2.3,0.1,4.9-1.3,6.6-3.1C-245.1,69.4-242,61.1-244.7,52.7z"/>
	<path class="st4" d="M-240.5,30.4c-1.8-4.4-5.7-7-13.2-7.9c-3.9-0.4-6.9-2.8-9.4-5.6c-3.5,3.1-5.9,8-6.6,13.8
		c2-4.1,3.6-8.8,6.5-11.7C-259.3,28.1-246.3,22.5-240.5,30.4z"/>
	<path class="st5" d="M-239.4,58.6c0.5,1,0.9,2,1.2,3.1s0.5,2.1,0.7,3.3c0,0.3,0.1,0.5,0.1,0.7c0,0.2-0.1,0.3-0.2,0.6
		c-0.3,0.5-0.8,1-1.2,1.5c-0.5,0.5-1,0.9-1.6,1.3l2.2,2.3l2.2,2.3l-9.4,12l-9.4,12l-9.4-12l-9.4-12l2.2-2.3l2.2-2.3
		c-0.6-0.4-1.2-0.8-1.6-1.3c-0.5-0.5-0.9-1-1.2-1.5c-0.2-0.3-0.2-0.4-0.2-0.6c0-0.2,0-0.3,0.1-0.7c0.1-1.1,0.4-2.2,0.7-3.3
		s0.7-2.1,1.2-3.1c0.7-1.2,1.4-2.4,2.3-3.4c0.9-1,1.9-1.9,3-2.6c-2.4,7.3-0.6,14.1,2.2,20.9c2.8,6.9,6.5,13.9,8.1,21.7
		c1.5-7.8,5.3-14.8,8.1-21.7c2.8-6.9,4.6-13.6,2.2-20.9c1.1,0.9,2.1,1.8,3,2.8C-240.8,56.4-240.1,57.5-239.4,58.6z"/>
	<path class="st6" d="M-255,95.3c1.3-6.5,4.1-12.4,6.6-18.2c-1.7,1.8-4.3,3.2-6.6,3.1c-2.3,0.1-4.9-1.3-6.6-3.1c0,0-0.1-0.1-0.1-0.1
		C-259.1,82.8-256.3,88.7-255,95.3z"/>
</g>
<g>
	<rect x="0" class="st0" width="90.8" height="99.9"/>
	<path class="st1" d="M66.4,29c0.7,1.2,0.7,3.2,0,5.6c-0.7,2.9-2.5,4.9-4.3,5.1c-0.9,4.1-2.7,7.8-5,10.5c3.1,2.5,5.7,5.2,7.5,8.4
		c4.6,1.5,9.1,3.9,13.6,6c1.1,0.5,0.9,0.3,1.4,1.5C81.7,71,89,95.1,90.8,99.9C76.1,100,61.9,100,46,100C30,100,28.2,99.9,0,99.9
		c2.1-4.5,10.1-29.1,12.4-33.8c0.6-1.3,0.4-1.1,1.7-1.6c4.4-1.9,8.5-4.1,13.2-5.6c2.1-3.6,4.8-6.4,8-8.4c-2.5-2.8-4.3-6.5-5.2-10.8
		c-1.9,0-3.8-2.1-4.6-5.1c-0.6-2.4-0.7-4.4,0-5.6c0.4-0.6,0.8-1,1.3-1.1c-2.7-9.8,0.5-16.6,7.5-20.7c9.7-7.4,22.1-6.7,29.6,3.6
		C67.3,15.7,67.9,22.9,66.4,29z"/>
	<path class="st2" d="M45.7,2.5c-3.9,0.4-7.9,2.1-11.5,4.8c-7,4.1-10.2,10.9-7.5,20.7c1.1-0.2,2.3,0.7,2.8,1.8
		c0.1,0.3,0.3,0.7,0.2,0.9c0.1,1.3,0.2,2.6,0.5,3.8c0.1,0.4,0.8,0.8,0.7,0.2C30.7,32.6,31,30,30.7,28l-0.3-1.8
		c1.2-4.8,3.6-8.9,6.8-11.7c2.8,3.1,6.2,5.7,10.6,6.1c7.6,0.8,11.9,3.3,14.2,7.3c-0.4,2-0.1,4.5-0.4,6.7c-0.1,0.6,0.6,0.2,0.7-0.2
		c0.3-1.2,0.2-2.5,0.3-3.8c-0.1-0.5-0.1-1,0.1-1.4c0.9-1.4,2.8-2.2,3.8-0.3c1.5-6.1,1-13.3-2.5-18.2c-3.7-5.1-8.5-7.8-13.6-8.4H45.7
		z"/>
	<path class="st3" d="M26.1,28.3c-0.2,0.2-0.4,0.4-0.6,0.7c-0.7,1.2-0.7,3.2,0,5.6c0.5,2.1,1.6,3.7,2.8,4.5c0.6,0.4,1.2,0.6,1.8,0.6
		c0.9,4.3,2.8,8,5.2,10.8c-0.3,0.9-0.6,2.1-0.8,3.3c3.3,5.1,7.2,8.1,11.4,8.1c4.5,0,8.6-3.3,12-8.9c-0.3-1.2-0.6-2.2-0.8-2.7
		c2.3-2.8,4.1-6.4,5-10.5c0.5-0.1,1-0.3,1.4-0.6c1.2-0.8,2.3-2.5,2.8-4.5c0.6-2.4,0.7-4.4,0-5.6c-0.2-0.3-0.4-0.5-0.6-0.7
		c-1.1-0.9-2.5-0.1-3.3,1.1c-0.2,0.4-0.2,0.9-0.1,1.4c-0.1,1.3,0,2.6-0.3,3.8c-0.1,0.4-0.8,0.8-0.7,0.2c0.3-2.1,0.1-4.7,0.4-6.7
		c-2.3-4-6.6-6.5-14.2-7.3c-4.4-0.5-7.7-3-10.6-6.1c-3.1,2.7-5.6,6.8-6.8,11.7l0.3,1.8c0.4,2,0.1,4.5,0.4,6.7
		c0.1,0.6-0.6,0.2-0.7-0.2c-0.3-1.2-0.4-2.5-0.5-3.8c0-0.3-0.1-0.7-0.2-0.9c-0.6-1.1-1.8-2.1-2.8-1.8C26.6,28,26.3,28.1,26.1,28.3z"
		/>
	<path class="st4" d="M30,38.8c-0.4-1.7-0.6-3.4-0.6-5.1c0-1.1,0-2.2,0.1-3.3c-0.1-0.1-0.2-0.2-0.3-0.4c-0.4-0.4-1-0.9-1.6-0.8
		c-0.4,0-0.7,0.4-0.9,0.7c-0.7,1.3-0.2,3.5,0.2,4.8c0.3,1.1,0.9,2.3,1.8,3.2C29,38.2,29.5,38.6,30,38.8z M62.2,38.8
		c0.4-1.7,0.6-3.4,0.6-5.1c0-1.1,0-2.2-0.1-3.3c0.1-0.1,0.2-0.2,0.3-0.4c0.4-0.4,1-0.9,1.6-0.8c0.4,0,0.7,0.4,0.9,0.7
		c0.7,1.3,0.2,3.5-0.2,4.8c-0.3,1.1-0.9,2.3-1.8,3.2C63.1,38.2,62.7,38.6,62.2,38.8z"/>
	<path class="st5" d="M35.3,50.6C29.1,68,42.4,84.4,45.4,100c-0.5,0-1,0-1.5,0l-20-25.1l5.7-4.5c-1.2-1.7-3.6-2.6-4.6-4.4
		c1-2.3,0.9-4.9,2.3-7C29.4,55.4,32.1,52.5,35.3,50.6z M58.2,51.2c2.6,2.2,4.8,4.7,6.4,7.5c0.2,0.1,0.5,0.2,0.7,0.2l0,0
		c1.4,2.2,1.3,4.8,2.3,7c-1,1.8-3.3,2.6-4.6,4.4l5.7,4.5l-20,25.1c-0.5,0-1,0-1.5,0.1c3-15.6,16.3-32,10.1-49.4
		C57.6,50.8,57.9,51,58.2,51.2z"/>
	<path class="st4" d="M57.1,50.3c0-0.1-4.3,4.9-11,4.9c-4.6,0-10.8-4.7-10.8-4.6l-0.2,0.8c1.2,1.4,2.5,2.5,3.9,3.3
		c2.1,1.3,4.6,2.1,7.2,2.5c2.5,0.4,5.3,0.5,8.1,0.4c1.2-1.3,2.4-2.8,3.5-4.6C57.6,51.8,57.3,50.8,57.1,50.3z"/>
	<path class="st6" d="M46,61.9c-4.2,0-8.2-3-11.4-8.1c0.3-1.2,0.5-2.4,0.8-3.3c-4,11.3,0.1,22.1,4.4,32.6c2.3,5.7,4.7,11.3,5.7,16.9
		H46c0.4,0,0.8,0,1.3,0c1-5.1,3.1-10.3,5.2-15.6c4.4-10.9,9.1-22.1,4.9-33.9c0.2,0.1,0.4,0.3,0.7,0.4c-0.3-0.2-0.5-0.4-0.8-0.7
		c0.2,0.5,0.5,1.5,0.8,2.7c-1.1,1.8-2.2,3.3-3.5,4.6C51.9,60.4,49,61.9,46,61.9z"/>
	<path class="st7" d="M46,62.8l-5.3,8.5l1.8,2.6l-2.8,9.3c2.3,5.7,4.7,11.3,5.7,16.8H46c0.4,0,0.8,0,1.3,0c1-5.1,3.1-10.3,5.2-15.5
		c0.3-0.8-3-10.5-3-10.5l1.8-3.1L46,62.8z"/>
	<path class="st0" d="M46,63l-8.3,11.2l-3.5-8.2c1,5.8,3.2,11.5,5.5,17.2l2.7-9.2l-1.8-2.6L46,63z M54.3,74.4L46,63l5.2,8l-1.8,3.1
		c0,0,2.9,8.5,3,10.2c2.5-6.1,5.1-12.4,6.1-18.8L54.3,74.4z"/>
	<path class="st4" d="M47.7,20.7c-4.4-0.5-7.7-3-10.6-6.1c-3.1,2.7-5.6,6.8-6.8,11.7c2.2-3.4,3.7-7.9,6.7-10.3
		c4.1,8.4,18.4,5.3,24.8,12.1C59.6,24,55.2,21.5,47.7,20.7z"/>
</g>
</svg>
