<svg xmlns="http://www.w3.org/2000/svg" style="isolation:isolate" viewBox="0 0 128 128" width="128" height="128"><defs><clipPath id="a"><path d="M0 0h128v128H0z"/></clipPath></defs><g clip-path="url(#a)"><path d="M38.205 110.022h-7.038c-.194 0-.323.129-.323.322v3.423c0 .193.129.322.323.322h2.776v4.262s-.646.194-2.324.194c-2.002 0-4.843-.711-4.843-6.909 0-6.199 2.906-7.038 5.682-7.038 2.389 0 3.422.387 4.068.646.194.064.387-.13.387-.323l.775-3.358c0-.065 0-.194-.129-.258-.258-.194-1.873-1.098-5.94-1.098-4.714 0-9.557 2.002-9.557 11.623 0 9.62 5.553 11.041 10.202 11.041 3.874 0 6.199-1.679 6.199-1.679a.496.496 0 0 0 .129-.258v-10.59c-.065-.193-.194-.322-.387-.322zM74.557 101.434c0-.194-.129-.323-.323-.323h-4.003c-.194 0-.323.129-.323.323v7.684h-6.199v-7.684c0-.194-.129-.323-.322-.323h-4.004c-.193 0-.323.129-.323.323v20.791c0 .194.13.323.323.323h4.004c.193 0 .322-.129.322-.323v-8.91h6.199v8.91c0 .194.129.323.323.323h4.003c.194 0 .323-.129.323-.323v-20.791z" fill="#100E0F"/><g fill="#100E0F"><path d="M45.695 104.21a2.59 2.59 0 0 0-2.583-2.582 2.59 2.59 0 0 0-2.583 2.582 2.59 2.59 0 0 0 2.583 2.583 2.59 2.59 0 0 0 2.583-2.583zM45.372 117.834v-9.62c0-.194-.129-.323-.323-.323H41.11c-.193 0-.323.194-.323.387v13.753c0 .388.259.517.582.517h3.551c.387 0 .516-.194.516-.517-.064-.71-.064-3.615-.064-4.197z"/></g><path d="M89.666 107.955h-3.939c-.193 0-.322.13-.322.323v10.202s-1.033.71-2.454.71c-1.42 0-1.808-.645-1.808-2.066v-8.91c0-.194-.129-.323-.323-.323h-4.003c-.194 0-.323.129-.323.323v9.556c0 4.132 2.325 5.165 5.488 5.165 2.583 0 4.714-1.42 4.714-1.42s.129.775.129.839c.065.065.194.194.258.194h2.519c.193 0 .322-.129.322-.323v-13.947c.065-.193-.129-.323-.258-.323zM100.385 107.503c-2.26 0-3.745.969-3.745.969v-7.038c0-.194-.129-.323-.323-.323h-4.003c-.194 0-.323.129-.323.323v20.791c0 .194.129.323.323.323h2.776c.129 0 .194-.065.258-.194.065-.129.194-.968.194-.968s1.614 1.549 4.714 1.549c3.615 0 5.682-1.808 5.682-8.264 0-6.328-3.293-7.168-5.553-7.168zm-1.55 11.687c-1.356-.064-2.324-.645-2.324-.645v-6.586s.903-.581 2.066-.646c1.42-.129 2.776.323 2.776 3.68 0 3.552-.581 4.262-2.518 4.197zM56.801 107.955H53.83v-3.938c0-.129-.064-.194-.258-.194h-4.068c-.129 0-.258.065-.258.194v4.068s-2.066.516-2.195.516c-.13.065-.259.194-.259.323v2.583c0 .193.129.323.323.323h2.066v6.134c0 4.584 3.229 5.036 5.36 5.036.968 0 2.195-.323 2.389-.387a.355.355 0 0 0 .193-.323v-2.841c0-.194-.129-.323-.322-.323-.194 0-.646.064-1.098.064-1.485 0-1.937-.71-1.937-1.549v-5.811h2.97c.194 0 .323-.13.323-.323v-3.229c.064-.193-.065-.323-.258-.323z" fill="#100E0F"/><g><path d="M108.531 49.531C108.531 24.791 88.533 5 64 5 39.261 5 19.469 24.998 19.469 49.531c0 19.585 12.576 36.284 30.1 42.057 1.031-.825 2.267-1.65 2.267-3.299V79.63s-2.061.413-4.741.413c-7.01 0-9.277-4.536-10.308-7.01-1.443-3.298-3.093-4.742-4.948-5.978-1.237-.619-1.443-1.65 0-1.856 6.185-1.237 7.834 7.01 11.957 8.246 2.886 1.031 6.804.413 8.659-.618.206-2.474 2.062-4.536 3.505-5.772-10.515-1.031-16.699-4.536-19.792-10.309l-.412-.618-.825-1.855-.206-.619c-1.031-2.886-1.443-6.391-1.443-10.102 0-6.803 2.062-9.277 4.948-12.782-2.062-7.628.825-12.988.825-12.988s4.535-1.031 12.988 5.154c4.741-2.062 16.905-2.062 22.884-.412 3.504-2.474 10.101-5.773 12.782-4.742.618 1.237 2.267 4.536 1.03 11.957 1.031 1.65 5.567 4.948 5.567 14.844 0 3.505-.413 6.597-1.237 9.277l-.413 1.237-.412 1.237-.206.619c-3.093 6.803-9.483 9.277-19.792 10.308 3.299 2.061 4.33 4.741 4.33 11.751v9.689c0 1.444 1.237 2.474 2.268 3.299 17.111-6.185 29.687-22.884 29.687-42.469z" fill="#010101"/></g></g></svg>