<?xml version="1.0" encoding="utf-8"?>
<!-- Generator: Adobe Illustrator 21.0.0, SVG Export Plug-In . SVG Version: 6.00 Build 0)  -->
<svg version="1.1" id="Capa_1" xmlns="http://www.w3.org/2000/svg" xmlns:xlink="http://www.w3.org/1999/xlink" x="0px" y="0px"
	 viewBox="0 0 128 128" style="enable-background:new 0 0 128 128;" xml:space="preserve">
<style type="text/css">
	.st0{fill:#6D3E33;}
	.st1{fill:#F4F4F4;}
	.st2{fill:#F3F4F4;}
	.st3{fill:none;}
	.st4{fill:#4D2C24;}
	.st5{fill:#D1D1D1;}
</style>
<g>
	<path class="st0" d="M128,64H0.1c0-35.3,28.6-64,64-64C99.4,0.1,128,28.7,128,64z"/>
	<path class="st1" d="M21.9,64c0-7.8,0.3-15.6,0-23.4c-0.1-3.9,1.2-4.7,4.8-4.6c7,0.3,14,0,20.9,0.1c11.9,0.2,18.5,11.7,12.2,21.8
		c-1.9,3,1.2,4.9,3.3,6.2c-0.5,3.3-5.1,2.2-7.4,2.1c-9.3-0.3-18.6-0.3-27.9,0.1c-2.2,0.1-4.4-0.2-5.7-2.3L21.9,64z"/>
	<path class="st2" d="M81.9,64C79,64,76,64,73,63.9c1.8-8.8,8.5-13.9,18-13.9c9.7,0,16.1,5,17.9,13.9c-3,0-5.9,0-8.9,0.1
		c-0.2,0-0.5,0-0.7,0c-5.6-4.5-11.2-4.1-16.7,0C82.4,64,82.2,64,81.9,64z"/>
	<path class="st1" d="M91,42c4,0,8,0,11.9,0c1.4,0,3.1-0.4,3,2.1c-0.1,2.1-1.5,1.8-2.8,1.9c-8.1,0-16.2,0-24.4,0
		c-1.3,0-2.7,0.2-2.8-1.8c-0.1-2.4,1.6-2.1,3-2.1C83,42,87,42,91,42z"/>
	<path class="st0" d="M40.6,45.9c2.2,0.1,4.3,0,6.5,0.3c2.9,0.4,4.9,1.8,5,5.2c0.2,3.4-1.3,5.8-4.5,6.2c-4.6,0.5-9.3,0.3-13.9,0.4
		C32.5,58,32,57.2,32,56c0-0.3,0-0.7,0-1C31.3,46,31.3,46,40.6,45.9z"/>
	<g>
		<path class="st3" d="M38.6,80c-2.1,0-3.5,0-4.5,0C35,80,36.4,80,38.6,80c1,0,2,0,3,0c0,0,0,0,0,0c0,0,0,0,0,0
			C40.5,80,39.5,80,38.6,80z"/>
		<path class="st3" d="M41.5,80.1c1.6-0.1,3.2-0.1,4.9-0.1C44.8,80,43.2,80,41.5,80.1C41.5,80.1,41.5,80.1,41.5,80.1z"/>
		<path class="st3" d="M56,73.7c0,1.3-0.3,2.3-0.8,3.1C55.7,76,56,75,56,73.7c0-1.9-0.7-3.2-1.7-4.1C55.3,70.5,56,71.8,56,73.7z"/>
		<path class="st3" d="M55.1,77.1c-0.1,0.1-0.1,0.1-0.2,0.2C54.9,77.2,55,77.1,55.1,77.1z"/>
		<path class="st3" d="M54.4,77.9c0,0-0.1,0.1-0.1,0.1C54.3,77.9,54.4,77.9,54.4,77.9z"/>
		<path class="st3" d="M53.6,78.5c0,0-0.1,0-0.1,0.1C53.5,78.5,53.6,78.5,53.6,78.5z"/>
		<path class="st3" d="M37.3,67.8c3.4,0.4,6.8,0.1,10.2,0.2C44.1,68,40.7,68.2,37.3,67.8c-2-0.2-3.3,0-4.2,0.7
			C34,67.9,35.3,67.6,37.3,67.8z"/>
		<path class="st4" d="M128,64L128,64c0,35.3-28.6,64-64,64c-35.3,0-64-28.6-64-64v0H128z"/>
		<path class="st5" d="M55.4,64c-11.1,0-22.1,0-33.2,0V64h40.6"/>
		<path class="st5" d="M62.9,64.1C62.9,64,62.8,64,62.9,64.1l-40.7,0v0.1c0,7.4-0.1,14.9-0.2,22.3c0,2.1,0.2,3.5,2.9,3.5
			c8.3-0.2,16.7,0.4,24.9-0.3C64.2,88.3,69.8,76.7,62.9,64.1z M55.2,76.8c0,0.1-0.1,0.2-0.1,0.2c0,0.1-0.1,0.1-0.2,0.2
			c-0.2,0.2-0.3,0.4-0.5,0.6c0,0-0.1,0.1-0.1,0.1c-0.2,0.2-0.4,0.4-0.7,0.5c0,0-0.1,0-0.1,0.1c-0.9,0.5-1.9,0.9-3,1.1
			c-1.3,0.2-2.7,0.3-4,0.3c-1.6,0.1-3.3,0.1-4.9,0.2c0,0,0-0.1,0-0.1h-3c-2.1,0-3.5,0-4.5,0c-2.4-0.2-1.9-1.2-2.2-6.6
			c-0.1-2.4,0.2-4,1.2-4.8c0.8-0.7,2.2-0.9,4.2-0.7c3.4,0.4,6.8,0.1,10.2,0.2c0.9,0,1.8,0.1,2.6,0.1c1.6,0.1,3,0.6,4.1,1.4
			c1.1,0.9,1.7,2.2,1.7,4.1C56,75,55.7,76,55.2,76.8z"/>
		<path class="st5" d="M108.9,79c-1.8,5.1-5.7,8-10.6,9.8C84.3,93.5,72,84.9,72,70.2c0-1.7,0.1-3.3,0.1-5c0.3-0.4,0.6-0.8,0.8-1.2
			h13.3c3.1,0.8,6.3,0.8,9.4,0H109c0.3,0.4,0.6,0.8,0.8,1.1c0,6.7,0,6.7-6.6,6.7c-6,0-12,0.1-18,0c-2.8-0.1-3.5,0.9-2.6,3.5
			c1.1,3.3,3,5.6,6.4,6.3c3.6,0.8,7.4,0.4,9.4-3c2.7-4.7,6.8-2.3,10.2-2.5C110.4,76.2,109.2,78.1,108.9,79z"/>
		<path class="st5" d="M86.3,64H73c0,0,0-0.1,0.1-0.1"/>
		<path class="st4" d="M34.1,80c1,0.1,2.4,0,4.5,0c1,0,2,0,3,0c0,0,0,0,0,0c0,0,0,0.1,0,0.1c0,0,0,0,0,0c1.6-0.1,3.2-0.1,4.9-0.1
			c1.4,0,2.7-0.1,4-0.3c1.2-0.2,2.2-0.5,3-1.1c0,0,0.1,0,0.1-0.1c0.2-0.2,0.5-0.4,0.7-0.5c0,0,0.1-0.1,0.1-0.1
			c0.2-0.2,0.3-0.4,0.5-0.6c0.1-0.1,0.1-0.1,0.2-0.2c0-0.1,0.1-0.2,0.1-0.2C55.7,76,56,75,56,73.7c0-1.9-0.7-3.2-1.7-4.1
			c-1.1-0.9-2.5-1.3-4.1-1.4c-0.9-0.1-1.8-0.1-2.6-0.1c-3.4-0.1-6.8,0.1-10.2-0.2c-2-0.2-3.3,0-4.2,0.7c-1.1,0.9-1.3,2.5-1.2,4.8
			C32.2,78.8,31.7,79.8,34.1,80z"/>
	</g>
	<path class="st4" d="M100.1,64c-0.1,0.5-0.2,1.3-0.4,1.4c-5.8,1.1-11.6,1-17.4,0c-0.2,0-0.2-0.9-0.4-1.4c0,0,0.4,0,0.4,0
		c5.8-3.3,11.6-3.7,17.4,0L100.1,64z"/>
	<path class="st0" d="M99.7,64c-5.8,0-11.6,0-17.4,0c1.6-3.9,4.3-6.3,8.7-6.2C95.3,58,98.2,60,99.7,64z"/>
</g>
</svg>
