<?xml version="1.0" encoding="utf-8"?>
<!-- Generator: Adobe Illustrator 21.0.0, SVG Export Plug-In . SVG Version: 6.00 Build 0)  -->
<svg version="1.1" id="Capa_1" xmlns="http://www.w3.org/2000/svg" xmlns:xlink="http://www.w3.org/1999/xlink" x="0px" y="0px"
	 viewBox="0 0 128 128" style="enable-background:new 0 0 128 128;" xml:space="preserve">
<style type="text/css">
	.st0{fill:#65392F;}
	.st1{fill:#FEFEFE;}
</style>
<g>
	<circle class="st0" cx="64" cy="64" r="64"/>
	<path class="st1" d="M98.8,91.4c-1.1,3.8-3.6,6.2-7.4,7.4c-0.7,0.5-1.5,0.3-2.2,0.3c-16.8,0-33.6,0-50.4,0c-0.7,0-1.5,0.2-2.2-0.3
		c-6.1-2.4-7.5-4.4-7.5-11.2c0-16.1,0-32.2,0-48.2c0-7.1,3.2-10.3,10.3-10.3c16.2,0,32.4,0,48.5,0c6.5,0,8.6,1.5,10.9,7.5
		c0.5,0.7,0.3,1.5,0.3,2.2c0,16.8,0,33.6,0,50.4C99.1,90,99.3,90.7,98.8,91.4z"/>
	<path class="st0" d="M91,61.6v24.8c0,2.5-2.1,4.6-4.6,4.6H41.6c-2.5,0-4.6-2.1-4.6-4.6V61.6c0-2.5,2.1-4.6,4.6-4.6h1.5
		c-0.7,2.2-1.1,4.5-1.1,7c0,12.1,9.8,22,22,22s22-9.9,22-22c0-2.5-0.4-4.8-1.1-7h1.5C88.9,57,91,59.1,91,61.6z"/>
	<ellipse class="st0" cx="64.5" cy="64" rx="14.5" ry="14"/>
	<path class="st0" d="M90.3,47.7c-0.1,0.7-0.5,1.3-1.2,1.5c-3,0.9-6.1,0.9-9.2,0c-0.6-0.2-1.1-0.7-1.2-1.5c-0.4-3-0.4-6,0-9
		c0.1-0.7,0.6-1.2,1.2-1.4c2.8-0.2,5.7-0.1,8.5-0.1c1,0.2,1.5,0.8,1.7,1.7C90.8,41.8,90.6,44.8,90.3,47.7z"/>
</g>
</svg>
