<?xml version="1.0" encoding="utf-8"?>
<!-- Generator: Adobe Illustrator 21.0.0, SVG Export Plug-In . SVG Version: 6.00 Build 0)  -->
<svg version="1.1" id="Capa_1" xmlns="http://www.w3.org/2000/svg" xmlns:xlink="http://www.w3.org/1999/xlink" x="0px" y="0px"
	 viewBox="0 0 128 128" style="enable-background:new 0 0 128 128;" xml:space="preserve">
<style type="text/css">
	.st0{fill:#65392F;}
	.st1{fill:#EFF0F0;}
	.st2{display:none;fill:#FDFDFD;}
	.st3{fill:#EDEFF0;}
</style>
<g>
	<circle class="st0" cx="64" cy="64" r="64"/>
	<path class="st1" d="M71.8,57c1.4-1.3,2.5-2.5,3.7-3.5c5.3-4.2,11.2-4.8,17.3-2.5c6,2.3,9.1,7,10.1,13.2c0.6,3.9,0.6,7.9,0.7,11.8
		c0.2,5.9,0.2,11.8-0.5,17.7c-0.3,2.8-1.7,3.9-4.5,3.4c-2.5-0.4-4.9-0.9-7.5-0.3c-1.7,0.4-2.8-0.6-3-2.4c-0.2-1.6,0-3.3,0.1-4.9
		c0-6.2,0.1-12.5-0.2-18.7c0-1-0.1-2.1-0.4-3.1c-0.8-3.7-3.2-5.6-7.1-5.9c-3.4-0.2-6.3,1.7-7.6,5c-0.7,2-0.7,4-0.7,6
		c-0.1,6.8,0,13.5,0,20.3c0,2.7-0.8,3.5-3.5,3.6c-2.4,0.1-4.9,0.2-7.3,0c-2.9-0.2-4-1.2-4.4-4.2c-0.1-1-0.2-2-0.2-3
		c0-11.1,0-22.2,0-33.4c0-0.9,0-1.8,0-2.6c0.2-2.2,1.3-3.3,3.4-3.1c2.7,0.2,5.4,0,8.1,0.1c3.3,0,4.2,1,3.8,4.2
		C72.1,55.5,72,56.1,71.8,57z"/>
	<path class="st2" d="M129,74.4c0.3,0.4,0.2,0.9,0.2,1.4c0,17,0,34.1,0,51.1c0,1.8-0.6,2.4-2.4,2.4c-17.2,0-34.3,0-51.5,0
		c-0.6,0-1.1-0.1-1.6-0.3c3.4-0.9,6.9-1.8,10.2-2.8c21.4-6.8,35.4-21.2,42.4-42.4c0.9-2.7,1.6-5.4,1.9-8.3
		C128.4,75,128.5,74.6,129,74.4z"/>
	<path class="st1" d="M48.4,75.8c-0.1,5.6-0.1,11.6,0,17.5c0.1,2.6-0.8,3.5-3.4,3.6c-2.4,0.1-4.9,0.2-7.3,0
		c-2.9-0.3-4.1-1.4-4.4-4.3c-0.3-3.3-0.2-6.7-0.2-10.1c0-9.3,0-18.6-0.1-27.9c0-2.8,0.7-3.6,3.5-3.8c2.4-0.2,4.8-0.2,7.2,0
		c3,0.2,4.2,1.4,4.4,4.4c0.1,1.9,0.2,3.9,0.2,5.9C48.4,65.9,48.4,70.7,48.4,75.8z"/>
	<path class="st3" d="M40.7,44.3c-4.7,0.1-8-2.7-8.5-7.1c-0.2-2.5,0.6-4.7,2.5-6.3c3.3-3,8.7-3,12.1,0c2.3,2,3.1,5.4,2.1,8.3
		c-1.2,3.2-3.7,4.7-7,5.1C41.4,44.4,41.1,44.3,40.7,44.3z"/>
</g>
</svg>
